<svg width="750" height="750" viewBox="0 0 750 750" xmlns="http://www.w3.org/2000/svg"><title>SiA</title><g fill="none" fill-rule="evenodd"><path d="M194 673.204v-46.408h5.287v46.408H194zm35.067.663c-7.183 0-13.563-2.475-19.14-7.425l3.28-3.845c2.498 2.254 5.007 3.911 7.528 4.972 2.52 1.06 5.365 1.591 8.533 1.591 3.123 0 5.643-.74 7.562-2.22 1.918-1.481 2.877-3.37 2.877-5.67v-.132c0-2.254-.847-4.044-2.543-5.37-1.695-1.326-4.907-2.475-9.636-3.448-5.532-1.193-9.537-2.795-12.013-4.806-2.476-2.011-3.714-4.873-3.714-8.586v-.132c0-3.669 1.45-6.697 4.35-9.083 2.9-2.387 6.58-3.58 11.042-3.58 6.202 0 11.69 1.9 16.463 5.701l-3.079 4.044c-4.149-3.359-8.655-5.038-13.518-5.038-2.989 0-5.398.718-7.227 2.154-1.83 1.437-2.744 3.216-2.744 5.337v.133c0 2.298.881 4.11 2.643 5.437 1.763 1.326 5.12 2.519 10.072 3.58 5.31 1.149 9.18 2.751 11.611 4.806 2.431 2.056 3.647 4.829 3.647 8.32v.133c0 3.934-1.494 7.105-4.484 9.514-2.989 2.409-6.826 3.613-11.51 3.613zm42.83-.663l21.348-46.74h4.952l21.348 46.74h-5.688l-5.488-12.265h-25.497l-5.555 12.265h-5.42zm13.05-16.972h21.347l-10.64-23.668-10.708 23.668zm50.927 17.304l-16.73-46.74h5.755l13.384 38.652 12.849-38.785h4.35l12.849 38.785 13.384-38.652h5.555l-16.73 46.74h-4.485l-12.848-37.658-12.916 37.658h-4.417zm60.965-.332v-46.408h33.863v4.773h-28.576v15.845h25.564v4.774h-25.564v16.243h28.91v4.773H396.84zm60.899.663c-7.183 0-13.563-2.475-19.14-7.425l3.28-3.845c2.498 2.254 5.008 3.911 7.528 4.972 2.521 1.06 5.365 1.591 8.533 1.591 3.123 0 5.644-.74 7.562-2.22 1.918-1.481 2.878-3.37 2.878-5.67v-.132c0-2.254-.848-4.044-2.543-5.37-1.696-1.326-4.908-2.475-9.637-3.448-5.532-1.193-9.536-2.795-12.013-4.806-2.476-2.011-3.714-4.873-3.714-8.586v-.132c0-3.669 1.45-6.697 4.35-9.083 2.9-2.387 6.58-3.58 11.042-3.58 6.202 0 11.69 1.9 16.463 5.701l-3.078 4.044c-4.15-3.359-8.656-5.038-13.519-5.038-2.989 0-5.398.718-7.227 2.154-1.83 1.437-2.744 3.216-2.744 5.337v.133c0 2.298.881 4.11 2.643 5.437 1.763 1.326 5.12 2.519 10.072 3.58 5.31 1.149 9.18 2.751 11.611 4.806 2.432 2.056 3.647 4.829 3.647 8.32v.133c0 3.934-1.494 7.105-4.483 9.514-2.99 2.409-6.826 3.613-11.511 3.613zm65.717-6.895c-4.506 4.685-10.239 7.028-17.199 7.028-6.96 0-12.67-2.331-17.132-6.994-4.461-4.663-6.692-10.288-6.692-16.873V650c0-6.586 2.253-12.232 6.76-16.94 4.505-4.706 10.238-7.06 17.198-7.06 6.96 0 12.67 2.331 17.132 6.994 4.461 4.663 6.692 10.288 6.692 16.873V650c0 6.586-2.253 12.243-6.759 16.972zm-30.315-3.38c3.524 3.712 7.94 5.568 13.25 5.568s9.693-1.834 13.15-5.503c3.458-3.668 5.187-8.176 5.187-13.524V650c0-5.348-1.752-9.878-5.254-13.591-3.502-3.713-7.908-5.57-13.217-5.57s-9.692 1.835-13.15 5.504c-3.458 3.668-5.186 8.176-5.186 13.524V650c0 5.348 1.74 9.878 5.22 13.591zm48.25 9.612v-46.408h5.354l17.065 25.326 17.065-25.326h5.354v46.408h-5.287v-37.59l-17.065 24.861h-.268l-17.065-24.795v37.524h-5.153zm58.088 0v-46.408h33.862v4.773h-28.575v15.845h25.564v4.774h-25.564v16.243h28.91v4.773h-34.197zm43.365 0v-6.96H649v6.96h-6.157z" fill="#141414"/><path d="M174.228 76.715c-25.853 3.157-54.564 15.666-84.05 36.574-13.522 9.65-21.504 16.322-32.226 27.104-21.504 21.623-36.872 45.927-43.723 69.218-4.884 16.62-5.54 36.098-1.787 52.062 4.706 19.836 14.058 35.502 32.107 53.67 17.334 17.454 33.18 29.844 64.214 50.157 38.123 24.9 53.67 35.383 62.665 42.174 16.024 12.033 30.856 25.138 29.843 26.388-.238.358-1.548 2.681-2.859 5.123-2.323 4.29-3.753 6.97-7.327 13.403-1.906 3.455-4.11 7.565-7.744 14.296-1.43 2.621-3.216 5.957-4.05 7.446-4.17 7.565-16.917 33.299-19.36 39.017-10.603 25.197-14.653 42.293-12.151 50.812 2.085 6.97 7.386 10.841 14.832 10.841 7.506 0 15.19-2.8 29.069-10.603 4.408-2.442 15.488-9.948 19.955-13.522 9.948-7.923 22.457-21.564 29.426-32.167 14.952-22.576 17.87-45.867 8.638-67.43-4.05-9.353-8.757-16.977-15.607-25.019l-3.336-3.931 1.251-2.145c.655-1.191 6.195-10.067 12.271-19.717 6.136-9.65 12.628-20.015 14.415-22.933 1.847-2.979 5.064-8.042 7.149-11.318 8.935-13.999 25.852-42.472 31.272-52.42 1.013-1.966 1.728-2.919 1.55-2.085-.835 3.991-4.647 35.264-5.72 47.059-.297 3.752-.774 8.458-.952 10.484-1.132 11.675-1.31 18.168-1.132 37.468.179 21.623.715 29.307 2.978 41.34 3.038 15.726 9.293 27.52 17.573 32.822 18.168 11.616 41.4-1.072 72.374-39.613 11.795-14.713 20.074-26.567 27.401-39.374l2.979-5.183.417 2.026c6.373 31.452 14.891 47.654 30.26 57.96 9.352 6.254 17.513 8.756 28.711 8.756 14.654 0 28.533-3.991 47.238-13.463 8.756-4.408 25.435-14.475 26.269-15.845.178-.357 1.727.596 3.395 2.026 22.695 19.18 53.73 19.836 95.368 2.084 34.608-14.772 70.11-42.71 84.824-66.775 5.004-8.042 8.518-16.262 9.233-21.445.417-2.859-1.072-7.207-2.979-8.756-2.084-1.608-4.229-1.49-7.148.417-2.501 1.549-3.693 3.514-6.91 10.9-9.53 21.981-46.581 53.97-82.143 70.827-19.002 9.054-35.443 13.462-49.918 13.343-11.854-.119-20.55-2.8-29.069-8.994l-3.097-2.324 4.289-3.812c16.62-14.654 28.235-29.486 36.515-46.582 6.195-12.807 8.697-22.16 8.756-32.584.06-13.283-4.825-23.946-13.522-29.486-5.957-3.812-11.854-4.884-19.002-3.455-7.863 1.55-14.356 5.302-21.742 12.33-11.258 10.902-19.955 27.82-23.946 46.821-1.847 8.995-1.906 22.815 0 31.81 1.191 6.016 4.05 14.474 5.718 17.334.417.655 1.43 2.442 2.324 3.99l1.548 2.8-6.373 4.587c-12.688 8.995-29.486 17.99-39.792 21.266-10.424 3.336-12.092 3.634-21.444 3.634-8.101 0-9.352-.12-13.283-1.55-12.152-4.348-22.279-13.938-29.129-27.52-3.157-6.254-5.718-13.82-8.22-24.184a1824.725 1824.725 0 0 1-2.8-11.497c-.834-3.514-2.442-4.765-5.6-4.408-5.36.596-13.402 8.876-25.852 26.627-12.032 17.156-27.4 35.92-36.276 44.259-12.152 11.377-21.325 15.428-27.7 12.39-3.454-1.668-5.42-4.05-7.862-9.352-4.468-9.59-7.625-25.376-8.876-44.319-.178-2.8-.476-6.492-.655-8.16-.536-5.302-.357-39.077.358-52.599 1.43-29.307 2.978-45.986 6.314-67.907 1.132-7.625 2.144-11.854 4.467-18.645 3.098-8.995 3.694-12.807 2.383-15.19-1.072-1.965-4.17-3.693-6.672-3.693-6.254 0-15.606 13.165-35.204 49.441-6.612 12.331-20.074 36.039-31.57 55.696-6.196 10.604-16.68 28.772-19.837 34.55-4.944 8.875-9.352 16.62-9.59 16.917-.12.12-2.442-1.668-5.123-3.931-20.849-17.454-33.656-26.27-73.744-50.514-26.865-16.262-35.8-22.04-49.442-31.75-18.644-13.343-34.072-27.877-42.233-39.731-20.73-30.083-17.69-67.253 8.637-105.853 15.726-23.052 37.945-44.199 64.989-61.83 40.088-26.21 82.62-32.823 90.72-14.178 2.8 6.433 1.669 14.415-5.122 36.515-5.301 17.275-15.666 43.902-26.448 67.907-5.6 12.51-20.193 47.952-22.576 54.684-3.276 9.352-2.204 9.411 1.906.119 3.276-7.267 7.625-16.084 27.878-56.292 20.431-40.387 24.422-49.322 31.75-70.945 6.492-19.121 7.207-26.746 3.275-37.11-1.787-4.945-7.624-10.723-13.64-13.582-8.4-4.051-19.836-5.362-32.941-3.753zm412.147 246.61c4.885 2.86 7.446 9.234 7.446 18.467.06 10.186-2.442 18.883-9.292 32.583-6.493 12.986-14.416 23.59-26.686 35.86-8.876 8.816-7.923 8.697-11.497 1.192-3.991-8.578-6.076-20.253-5.361-31.154 1.132-18.883 10.186-39.613 21.98-50.395 8.876-8.101 16.917-10.365 23.41-6.552zM220.392 454.912c7.03 10.544 9.412 16.977 9.412 25.555 0 6.552-1.191 11.616-4.23 18.228-7.564 16.262-24.541 33.536-49.142 49.977-6.97 4.646-14.475 9.054-15.428 9.054-1.013 0 .298-8.399 2.382-14.773 6.315-19.597 15.726-37.289 46.82-88.04 5.183-8.519 4.468-8.519 10.186 0z" fill="#000" fill-rule="nonzero"/></g></svg>