<?xml version="1.0" encoding="UTF-8"?>
<svg width="750px" height="750px" viewBox="0 0 750 750" version="1.1" xmlns="http://www.w3.org/2000/svg" xmlns:xlink="http://www.w3.org/1999/xlink">
    <!-- Generator: Sketch 48.1 (47250) - http://www.bohemiancoding.com/sketch -->
    <title>SiA</title>
    <desc>Created with Sketch.</desc>
    <defs></defs>
    <g id="Product-Branding" stroke="none" stroke-width="1" fill="none" fill-rule="evenodd">
        <g id="SiA">
            <g id="Group" transform="translate(10.000000, 76.000000)">
                <path d="M184,597.20442 L184,550.79558 L189.286807,550.79558 L189.286807,597.20442 L184,597.20442 Z M219.066922,597.867403 C211.883967,597.867403 205.504171,595.39229 199.927342,590.441989 L203.206501,586.596685 C205.70492,588.85084 208.214455,590.508282 210.735182,591.569061 C213.255908,592.62984 216.100048,593.160221 219.267686,593.160221 C222.39071,593.160221 224.911399,592.419897 226.829828,590.939227 C228.748257,589.458556 229.707457,587.569072 229.707457,585.270718 L229.707457,585.138122 C229.707457,582.883967 228.859792,581.093929 227.164436,579.767956 C225.46908,578.441982 222.256875,577.292823 217.527725,576.320442 C211.995511,575.127066 207.991408,573.524872 205.515296,571.513812 C203.039185,569.502752 201.801147,566.640903 201.801147,562.928177 L201.801147,562.79558 C201.801147,559.127053 203.251101,556.099459 206.151052,553.712707 C209.051002,551.325955 212.731654,550.132597 217.193117,550.132597 C223.39455,550.132597 228.882067,552.03313 233.655832,555.834254 L230.577438,559.878453 C226.428278,556.51932 221.922268,554.839779 217.059273,554.839779 C214.070093,554.839779 211.66094,555.558004 209.83174,556.994475 C208.00254,558.430946 207.087954,560.209934 207.087954,562.331492 L207.087954,562.464088 C207.087954,564.762442 207.96908,566.574579 209.731358,567.900552 C211.493635,569.226526 214.850836,570.419884 219.803059,571.480663 C225.1122,572.62984 228.982461,574.232034 231.413958,576.287293 C233.845455,578.342552 235.061185,581.116005 235.061185,584.607735 L235.061185,584.740331 C235.061185,588.674053 233.566618,591.845292 230.577438,594.254144 C227.588258,596.662995 223.751457,597.867403 219.066922,597.867403 Z M261.89675,597.20442 L283.244742,550.464088 L288.196941,550.464088 L309.544933,597.20442 L303.856597,597.20442 L298.369025,584.939227 L272.871893,584.939227 L267.3174,597.20442 L261.89675,597.20442 Z M274.946463,580.232044 L296.294455,580.232044 L285.65392,556.563536 L274.946463,580.232044 Z M325.873805,597.535912 L309.143403,550.79558 L314.898662,550.79558 L328.282983,589.447514 L341.131931,550.662983 L345.481836,550.662983 L358.330784,589.447514 L371.715105,550.79558 L377.269598,550.79558 L360.539197,597.535912 L356.055449,597.535912 L343.206501,559.878453 L330.290631,597.535912 L325.873805,597.535912 Z M386.839388,597.20442 L386.839388,550.79558 L420.701721,550.79558 L420.701721,555.569061 L392.126195,555.569061 L392.126195,571.414365 L417.690249,571.414365 L417.690249,576.187845 L392.126195,576.187845 L392.126195,592.430939 L421.036329,592.430939 L421.036329,597.20442 L386.839388,597.20442 Z M447.73805,597.867403 C440.555095,597.867403 434.175299,595.39229 428.59847,590.441989 L431.877629,586.596685 C434.376048,588.85084 436.885583,590.508282 439.40631,591.569061 C441.927036,592.62984 444.771176,593.160221 447.938815,593.160221 C451.061838,593.160221 453.582527,592.419897 455.500956,590.939227 C457.419385,589.458556 458.378585,587.569072 458.378585,585.270718 L458.378585,585.138122 C458.378585,582.883967 457.53092,581.093929 455.835564,579.767956 C454.140208,578.441982 450.928003,577.292823 446.198853,576.320442 C440.666639,575.127066 436.662536,573.524872 434.186424,571.513812 C431.710313,569.502752 430.472275,566.640903 430.472275,562.928177 L430.472275,562.79558 C430.472275,559.127053 431.922229,556.099459 434.82218,553.712707 C437.72213,551.325955 441.402782,550.132597 445.864245,550.132597 C452.065678,550.132597 457.553195,552.03313 462.32696,555.834254 L459.248566,559.878453 C455.099406,556.51932 450.593396,554.839779 445.730402,554.839779 C442.741222,554.839779 440.332068,555.558004 438.502868,556.994475 C436.673668,558.430946 435.759082,560.209934 435.759082,562.331492 L435.759082,562.464088 C435.759082,564.762442 436.640208,566.574579 438.402486,567.900552 C440.164763,569.226526 443.521964,570.419884 448.474187,571.480663 C453.783328,572.62984 457.653589,574.232034 460.085086,576.287293 C462.516583,578.342552 463.732314,581.116005 463.732314,584.607735 L463.732314,584.740331 C463.732314,588.674053 462.237746,591.845292 459.248566,594.254144 C456.259386,596.662995 452.422586,597.867403 447.73805,597.867403 Z M513.455067,590.972376 C508.94899,595.657482 503.216096,598 496.256214,598 C489.296332,598 483.585746,595.668532 479.124283,591.005525 C474.66282,586.342518 472.432122,580.718265 472.432122,574.132597 L472.432122,574 C472.432122,567.414332 474.685127,561.767979 479.191205,557.060773 C483.697282,552.353568 489.430176,550 496.390057,550 C503.349939,550 509.060526,552.331468 513.521989,556.994475 C517.983451,561.657482 520.214149,567.281735 520.214149,573.867403 L520.214149,574 C520.214149,580.585668 517.961144,586.24307 513.455067,590.972376 Z M483.139579,587.59116 C486.664135,591.303886 491.080917,593.160221 496.390057,593.160221 C501.699198,593.160221 506.082519,591.325985 509.540153,587.657459 C512.997787,583.988932 514.726577,579.48069 514.726577,574.132597 L514.726577,574 C514.726577,568.651907 512.97548,564.121566 509.473231,560.40884 C505.970983,556.696114 501.565355,554.839779 496.256214,554.839779 C490.947074,554.839779 486.563752,556.674015 483.106119,560.342541 C479.648485,564.011068 477.919694,568.51931 477.919694,573.867403 L477.919694,574 C477.919694,579.348093 479.659638,583.878434 483.139579,587.59116 Z M531.390057,597.20442 L531.390057,550.79558 L536.743786,550.79558 L553.808795,576.121547 L570.873805,550.79558 L576.227533,550.79558 L576.227533,597.20442 L570.940727,597.20442 L570.940727,559.61326 L553.875717,584.475138 L553.608031,584.475138 L536.543021,559.679558 L536.543021,597.20442 L531.390057,597.20442 Z M589.478011,597.20442 L589.478011,550.79558 L623.340344,550.79558 L623.340344,555.569061 L594.764818,555.569061 L594.764818,571.414365 L620.328872,571.414365 L620.328872,576.187845 L594.764818,576.187845 L594.764818,592.430939 L623.674952,592.430939 L623.674952,597.20442 L589.478011,597.20442 Z M632.843212,597.20442 L632.843212,590.243094 L639,590.243094 L639,597.20442 L632.843212,597.20442 Z" id="IS-AWESOME." fill="#141414"></path>
                <g id="She" transform="translate(365.000000, 249.500000) scale(-1, 1) rotate(-180.000000) translate(-365.000000, -249.500000) " fill="#000000" fill-rule="nonzero">
                    <path d="M164.227662,498.285186 C138.375357,495.128089 109.663811,482.618837 80.1778866,461.710517 C66.6560588,452.060523 58.6740106,445.388922 47.9518564,434.607139 C26.4479804,412.984004 11.0795594,388.680315 4.22929417,365.38928 C-0.655242758,348.769846 -1.31048552,329.291154 2.44226846,313.326967 C7.14810282,293.490868 16.500204,277.82452 34.5491636,259.656321 C51.8833129,242.202937 67.7282742,229.812821 98.7629539,209.500179 C136.886169,184.600812 152.433293,174.116868 161.427989,167.326131 C177.451652,155.293422 192.283966,142.188492 191.271318,140.937567 C191.033048,140.58016 189.722562,138.257013 188.412077,135.814731 C186.088943,131.525845 184.659323,128.845291 181.085271,122.411961 C179.179111,118.957025 176.975112,114.846843 173.341493,108.115674 C171.911873,105.494688 170.124847,102.158887 169.290902,100.669691 C165.121175,93.104572 152.373725,67.3712546 149.931457,61.6527396 C139.328437,36.455533 135.277846,19.3595559 137.779682,10.8413513 C139.864545,3.87191119 145.166055,0 152.611995,0 C160.117503,0 167.801714,2.79968963 181.680947,10.6030799 C186.088943,13.0453623 197.168503,20.5509132 201.636067,24.1249851 C211.583843,32.047511 224.093023,45.688552 231.062424,56.2916318 C246.013872,78.8678525 248.932681,102.158887 239.699714,123.722454 C235.649123,133.074609 230.943288,140.699296 224.093023,148.740957 L220.757242,152.672436 L222.00816,154.81688 C222.663403,156.008237 228.203182,164.883849 234.27907,174.533843 C240.414525,184.183837 246.907385,194.548645 248.69441,197.46747 C250.541004,200.445864 253.75765,205.509132 255.842513,208.785365 C264.777642,222.783813 281.694818,251.257252 287.115463,261.205085 C288.128111,263.170825 288.842921,264.123911 288.664219,263.289961 C287.830273,259.298914 284.017952,228.025785 282.945736,216.231348 C282.647899,212.478572 282.171359,207.772711 281.992656,205.747404 C280.860873,194.072102 280.682171,187.579205 280.860873,168.279217 C281.039576,146.656082 281.575683,138.971828 283.839249,126.939119 C286.877193,111.213203 293.131783,99.4187657 301.411669,94.1172257 C319.579763,82.5014922 342.811098,95.1894473 373.78621,133.729856 C385.580579,148.443118 393.860465,160.297123 401.187271,173.104214 L404.165647,178.286618 L404.582619,176.261311 C410.956344,144.809478 419.4745,128.607019 434.842921,118.301779 C444.195022,112.047153 452.355773,109.545303 463.554468,109.545303 C478.208078,109.545303 492.087311,113.53635 510.791514,123.00764 C519.54794,127.415662 536.226846,137.482631 537.060792,138.852692 C537.239494,139.210099 538.78825,138.257013 540.45614,136.827385 C563.151367,117.646532 594.186047,116.991286 635.823745,134.742509 C670.432477,149.51534 705.934721,177.452668 720.647899,201.518085 C725.651571,209.559747 729.166055,217.780112 729.880865,222.962516 C730.297838,225.821774 728.80865,230.170228 726.902489,231.718992 C724.817625,233.327325 722.673195,233.208189 719.754386,231.302017 C717.25255,229.753253 716.0612,227.787513 712.844553,220.401098 C703.313749,198.420556 666.26275,166.432613 630.700938,149.574907 C611.698898,140.520592 595.258262,136.11257 580.783354,136.231706 C568.929417,136.350842 560.232558,139.031395 551.714402,145.226453 L548.616891,147.5496 L552.905753,151.361943 C569.525092,166.015638 581.140759,180.848036 589.420645,197.944013 C595.615667,210.751104 598.117503,220.103259 598.177071,230.527635 C598.236638,243.811269 593.352101,254.473917 584.655243,260.013728 C578.69849,263.826071 572.801306,264.898293 565.653203,263.468664 C557.79029,261.9199 551.29743,258.167124 543.911057,251.138116 C532.652795,240.237197 523.955936,223.319924 519.964912,204.317775 C518.118319,195.323027 518.058752,181.503283 519.964912,172.508535 C521.156263,166.492181 524.015504,158.033544 525.683395,155.174287 C526.100367,154.51904 527.113015,152.732004 528.006528,151.18324 L529.555284,148.38355 L523.181559,143.796825 C510.493676,134.802077 493.695634,125.80733 483.390453,122.531097 C472.966136,119.195297 471.298246,118.897457 461.946144,118.897457 C453.844961,118.897457 452.594043,119.016593 448.662587,120.446222 C436.510812,124.794676 426.384333,134.385102 419.534068,147.966575 C416.376989,154.221201 413.815585,161.78632 411.313749,172.151128 C410.062831,177.214397 408.811914,182.396801 408.514076,183.647726 C407.680131,187.16223 406.071807,188.413155 402.914729,188.055748 C397.553652,187.460069 389.512036,179.180136 377.062424,161.428912 C365.029784,144.273368 349.661363,125.50949 340.785802,117.169989 C328.634027,105.792527 319.460628,101.741912 313.086903,104.779873 C309.631987,106.447774 307.666259,108.830488 305.22399,114.132028 C300.756426,123.722454 297.599347,139.507938 296.348429,158.450519 C296.169727,161.250209 295.871889,164.943416 295.693186,166.611317 C295.157079,171.912857 295.335781,205.687836 296.050592,219.209741 C297.480212,248.51713 299.028968,265.196132 302.364749,287.117106 C303.496532,294.741793 304.50918,298.971111 306.832313,305.761848 C309.929825,314.756595 310.5255,318.568939 309.215014,320.951653 C308.142799,322.917393 305.045288,324.644861 302.543452,324.644861 C296.288862,324.644861 286.936761,311.480363 267.339045,275.203533 C260.72705,262.872986 247.26479,239.164976 235.768258,219.50758 C229.573235,208.9045 219.089351,190.736302 215.932273,184.958219 C210.988168,176.082607 206.580171,168.338785 206.341901,168.040945 C206.222766,167.92181 203.899633,169.708846 201.219094,171.972424 C180.370461,189.425809 167.563443,198.241853 127.4745,222.485973 C100.609547,238.748 91.6744186,244.526083 78.0334557,254.235645 C59.3888209,267.578847 43.9608323,282.113406 35.8000816,293.967411 C15.0705834,324.049182 18.1085271,361.21953 44.4373725,399.819506 C60.1631987,422.872269 82.3818849,444.018861 109.425541,461.650949 C149.514484,487.860809 192.045696,494.472842 200.146879,475.828101 C202.946552,469.394771 201.814769,461.412678 195.024072,439.313 C189.722562,422.038319 179.357813,395.411484 168.576091,371.405634 C162.976744,358.896383 148.382701,323.453504 146,316.722335 C142.723786,307.37018 143.796002,307.310612 147.906161,316.603199 C151.182375,323.870479 155.530804,332.686523 175.783762,372.894831 C196.215422,413.281843 200.206446,422.217023 207.533252,443.840158 C214.026112,462.961442 214.740922,470.586129 210.809466,480.950937 C209.02244,485.89507 203.184823,491.673153 197.168503,494.53241 C188.769482,498.583025 177.332517,499.893518 164.227662,498.285186 Z M576.375357,251.674227 C581.259894,248.81497 583.821297,242.441208 583.821297,233.208189 C583.880865,223.022084 581.379029,214.325176 574.528764,200.624567 C568.035904,187.638773 560.113423,177.035693 547.842513,164.764713 C538.966952,155.948669 539.920033,156.067805 536.345981,163.573356 C532.354957,172.151128 530.270094,183.82643 530.984904,194.727349 C532.116687,213.610362 541.170951,234.339979 552.96532,245.121762 C561.840881,253.222992 569.882497,255.48657 576.375357,251.674227 Z M210.392493,120.088815 C217.421461,109.545303 219.804162,103.111973 219.804162,94.5342008 C219.804162,87.9817357 218.612811,82.9184672 215.574867,76.3064343 C208.009792,60.0444073 191.033048,42.7697266 166.431661,26.3289961 C159.46226,21.6827026 151.956752,17.2746807 151.003672,17.2746807 C149.991024,17.2746807 151.30151,25.6737496 153.386373,32.047511 C159.70053,51.6453384 169.112199,69.3369942 200.206446,120.088815 C205.388821,128.607019 204.674011,128.607019 210.392493,120.088815 Z" id="Shape"></path>
                </g>
            </g>
        </g>
    </g>
</svg>